<?xml version="1.0" standalone="no"?>
<!DOCTYPE svg PUBLIC "-//W3C//DTD SVG 20010904//EN"
 "http://www.w3.org/TR/2001/REC-SVG-20010904/DTD/svg10.dtd">
<svg version="1.0" xmlns="http://www.w3.org/2000/svg"
 width="4500.000000pt" height="4500.000000pt" viewBox="0 0 4500.000000 4500.000000"
 preserveAspectRatio="xMidYMid meet">

<g transform="translate(0.000000,4500.000000) scale(0.100000,-0.100000)"
fill="#000000" stroke="none">
<path d="M27365 39663 c-239 -30 -521 -123 -705 -233 -30 -18 -107 -50 -170
-72 -63 -22 -164 -60 -225 -84 -444 -181 -810 -495 -966 -828 -64 -138 -74
-198 -95 -546 -5 -94 -2 -124 30 -290 20 -102 49 -273 65 -380 45 -303 113
-578 211 -853 47 -132 62 -153 24 -33 -94 298 -15 455 264 527 319 81 587
-120 518 -391 -9 -34 -14 -65 -12 -68 3 -2 36 5 74 17 52 15 83 33 121 67 100
90 128 181 141 454 11 231 35 342 104 485 230 473 806 765 1506 765 234 0 380
-33 455 -104 40 -38 42 -53 19 -147 -15 -61 -15 -71 0 -130 25 -95 69 -162
181 -274 136 -135 329 -270 559 -390 l96 -50 42 24 c135 75 320 233 404 344
92 122 154 285 154 402 0 151 -66 307 -190 447 l-55 62 -1 116 c-2 191 -59
326 -193 461 -137 136 -299 217 -591 294 -97 25 -290 90 -470 158 -422 158
-575 202 -815 238 -120 18 -385 24 -480 12z"/>
<path d="M25570 36215 c0 -5 5 -17 10 -25 5 -8 10 -10 10 -5 0 6 -5 17 -10 25
-5 8 -10 11 -10 5z"/>
<path d="M25660 36006 c0 -12 153 -309 220 -426 l55 -95 8 75 c11 109 4 134
-47 169 -61 42 -148 140 -195 218 -23 38 -41 64 -41 59z"/>
<path d="M34555 28131 c-412 -138 -1351 -448 -2085 -691 l-1335 -442 -56 -57
-57 -58 -65 -204 c-61 -192 -417 -1299 -567 -1764 -166 -515 -722 -2253 -760
-2374 -27 -88 -40 -144 -36 -163 3 -15 4 -28 3 -28 -2 0 -876 324 -1942 720
-1448 537 -1944 725 -1956 741 -16 22 -16 22 -21 -17 -7 -59 8 -90 50 -107 20
-8 906 -337 1967 -731 1250 -463 1943 -716 1967 -716 64 0 72 8 43 42 -14 16
-25 36 -25 44 0 9 49 169 109 357 60 188 265 830 456 1427 191 597 455 1423
586 1835 132 413 250 779 262 814 23 68 76 136 131 170 55 34 4174 1394 4205
1388 24 -5 23 -3 -13 29 -29 25 -49 34 -75 34 -20 0 -373 -112 -786 -249z"/>
<path d="M18175 23511 c-3 -5 -2 -12 3 -15 5 -3 9 1 9 9 0 17 -3 19 -12 6z"/>
<path d="M37653 21853 c9 -2 23 -2 30 0 6 3 -1 5 -18 5 -16 0 -22 -2 -12 -5z"/>
<path d="M37569 21845 c-3 -2 -39 -6 -80 -9 -40 -2 -81 -7 -89 -10 -13 -5
-1399 -191 -1505 -201 -22 -3 -175 -23 -340 -45 -165 -22 -435 -58 -600 -80
-576 -76 -1210 -159 -1262 -166 l-53 -7 0 -53 c0 -30 4 -54 10 -54 5 0 136 20
292 45 156 24 571 90 923 145 352 55 710 112 795 125 85 14 558 88 1050 165
492 77 900 142 905 144 6 3 -2 5 -16 5 -14 1 -28 -1 -30 -4z"/>
<path d="M37765 21830 c40 -126 271 -1047 319 -1270 67 -314 87 -459 93 -673
6 -213 -2 -307 -42 -487 -25 -114 -119 -462 -134 -496 -7 -16 -22 -23 -58 -27
-162 -22 -4449 -701 -4455 -706 -4 -3 -13 -95 -20 -203 -13 -196 -13 -197 7
-193 11 3 925 147 2030 320 1106 174 2180 343 2387 375 208 33 380 60 383 60
2 0 47 64 98 143 233 352 354 635 428 994 30 144 37 459 15 613 -52 357 -195
682 -435 990 -101 130 -215 253 -324 351 -95 86 -278 229 -292 229 -3 0 -4 -9
0 -20z"/>
<path d="M27070 20284 c-36 -7 -249 -47 -475 -89 -225 -42 -481 -89 -569 -106
-87 -17 -165 -28 -173 -25 -8 3 -12 2 -9 -2 2 -4 -100 -26 -227 -50 -128 -23
-326 -60 -442 -81 -761 -143 -922 -172 -937 -167 -10 2 -16 1 -13 -3 2 -5 -54
-19 -125 -31 -71 -13 -128 -25 -126 -28 4 -3 322 45 521 78 33 6 175 28 315
50 232 36 1277 200 2233 350 208 33 384 60 390 61 29 2 -222 58 -258 57 -22 0
-69 -6 -105 -14z"/>
<path d="M24186 19768 c3 -5 10 -6 15 -3 13 9 11 12 -6 12 -8 0 -12 -4 -9 -9z"/>
<path d="M10910 18166 l-1745 -372 -120 -119 c-380 -379 -625 -825 -710 -1292
-25 -136 -30 -404 -11 -549 61 -465 299 -937 683 -1357 l49 -54 499 -67 c275
-37 583 -78 685 -91 102 -14 250 -34 330 -45 80 -11 262 -36 405 -55 143 -19
379 -50 525 -70 146 -20 366 -49 490 -65 124 -17 270 -37 325 -45 55 -8 172
-24 260 -35 88 -12 174 -23 190 -25 185 -26 488 -66 555 -75 47 -6 99 -13 115
-15 70 -10 421 -57 555 -75 80 -11 312 -42 515 -69 204 -28 541 -73 750 -101
209 -28 394 -53 410 -56 17 -2 133 -18 259 -34 126 -17 243 -33 260 -35 28 -4
271 -37 1196 -161 184 -24 382 -51 440 -59 58 -9 256 -35 440 -60 369 -49 708
-94 1165 -156 165 -22 329 -45 365 -49 36 -5 218 -30 405 -55 187 -25 372 -50
410 -55 39 -5 156 -21 260 -35 105 -14 276 -37 380 -51 207 -27 1539 -205
1700 -227 l100 -14 1059 324 c583 178 1063 320 1067 316 4 -5 46 -82 94 -173
48 -91 103 -188 122 -217 57 -86 197 -207 351 -302 363 -225 948 -411 1352
-428 140 -6 186 4 323 73 194 98 244 232 152 415 -58 117 -115 189 -410 524
-159 180 -284 332 -353 428 -40 57 -80 152 -69 164 4 3 277 88 609 190 332
101 1384 423 2338 714 954 292 1738 533 1743 536 4 2 4 -69 1 -160 -6 -139 -4
-172 10 -218 59 -188 292 -326 751 -444 310 -80 404 -120 682 -288 516 -312
846 -467 1157 -543 214 -52 310 -64 481 -60 231 6 321 38 571 207 181 123 219
173 218 294 0 57 -5 82 -30 135 -46 96 -95 144 -323 317 -513 389 -857 677
-1122 942 -167 167 -368 400 -369 426 0 6 181 65 403 133 221 67 762 232 1202
367 440 135 1274 390 1853 567 687 210 1047 325 1035 329 -10 4 -157 22 -328
39 l-310 31 -1865 -566 c-1026 -311 -1908 -579 -1961 -595 l-96 -30 5 -49 c4
-49 4 -51 -48 -100 -186 -178 -719 -311 -1253 -311 -252 0 -440 30 -559 88
l-57 28 -5 -40 c-3 -23 -8 -77 -11 -121 -4 -44 -7 -80 -8 -81 -1 -1 -1081
-329 -2401 -729 -1800 -546 -2400 -724 -2406 -715 -26 42 -86 413 -96 591 l-7
116 -81 5 c-401 26 -1116 576 -1347 1037 -21 42 -43 97 -50 124 -7 26 -16 47
-19 47 -20 0 -563 -465 -718 -614 -160 -154 -177 -198 -148 -390 27 -185 122
-429 232 -596 46 -71 72 -99 246 -265 40 -38 102 -113 137 -165 76 -110 231
-370 231 -386 0 -5 -435 -142 -966 -303 l-966 -293 -2036 287 c-1121 157
-4210 592 -6867 966 -2656 373 -4845 682 -4864 687 -32 7 -36 13 -68 97 -80
208 -144 472 -179 730 -22 162 -25 566 -5 735 42 372 162 843 293 1154 l33 79
215 49 c118 27 233 48 255 49 22 0 1113 -144 2425 -321 1312 -176 2720 -365
3130 -421 410 -55 894 -120 1075 -144 182 -25 1487 -200 2900 -390 1414 -190
2840 -382 3171 -426 l601 -81 744 222 c409 122 789 236 844 252 55 16 201 45
325 64 124 20 229 39 233 44 12 10 276 424 274 427 -3 3 -1188 -185 -1192
-189 -1 -2 10 -86 25 -188 16 -102 28 -185 27 -186 -2 -2 -159 27 -882 161
-77 14 -185 34 -240 45 -55 10 -199 37 -320 59 -1207 222 -2008 371 -2025 378
-8 3 -20 5 -25 5 -6 -1 -44 5 -85 13 -41 9 -91 18 -110 20 -33 5 -629 114
-1115 205 -115 21 -320 59 -455 84 -135 25 -405 75 -600 111 -195 36 -404 75
-465 86 -99 18 -771 142 -1100 204 -71 13 -474 88 -895 165 -421 78 -909 168
-1085 201 -176 33 -333 62 -350 65 -16 3 -298 55 -625 115 -327 61 -653 121
-725 134 -71 13 -193 35 -270 50 -224 42 -410 75 -415 74 -3 -1 -790 -168
-1750 -373z"/>
<path d="M30400 17690 c-377 -60 -694 -112 -705 -117 -19 -8 -475 -463 -464
-463 3 0 434 68 959 150 525 83 958 150 962 150 4 0 8 7 8 16 0 33 -63 374
-69 373 -3 -1 -314 -50 -691 -109z"/>
<path d="M8446 10688 c3 -5 10 -6 15 -3 13 9 11 12 -6 12 -8 0 -12 -4 -9 -9z"/>
<path d="M28735 7804 c-3905 -1185 -7107 -2153 -7116 -2151 -21 6 -29 -53 -29
-211 0 -103 2 -113 18 -108 9 3 105 32 212 65 107 33 353 108 545 166 193 59
413 126 490 150 77 24 268 82 425 130 157 48 348 106 425 130 77 24 327 100
555 170 228 70 582 178 785 240 204 62 393 120 420 128 28 8 214 65 415 127
201 62 421 129 490 150 69 21 584 178 1145 350 561 171 1101 337 1200 367 99
30 295 90 435 133 140 43 354 108 475 145 121 37 306 93 410 125 250 77 895
274 1165 356 118 36 249 76 290 89 41 13 298 92 570 175 757 231 1196 365
2520 770 195 60 524 160 730 223 206 63 474 145 595 182 445 135 580 178 587
184 7 6 -591 72 -637 71 -11 -1 -3215 -971 -7120 -2156z"/>
<path d="M21065 8821 c-3 -5 -2 -12 3 -15 5 -3 9 1 9 9 0 17 -3 19 -12 6z"/>
<path d="M7870 7216 c0 -2 8 -10 18 -17 15 -13 16 -12 3 4 -13 16 -21 21 -21
13z"/>
</g>
</svg>
